<svg xmlns="http://www.w3.org/2000/svg" width="100" height="100" viewBox="0 0 100 100">
<circle cx="4.401" cy="28.403" r="2" fill="rgb(0,0,0)" stroke="none" />
<circle cx="23.428" cy="72.701" r="2" fill="rgb(0,0,0)" stroke="none" />
<circle cx="66.963" cy="87.649" r="2" fill="rgb(0,0,0)" stroke="none" />
<circle cx="10.346" cy="42.504" r="2" fill="rgb(0,0,0)" stroke="none" />
<circle cx="4.861" cy="22.989" r="2" fill="rgb(0,0,0)" stroke="none" />
<circle cx="50.514" cy="4.547" r="2" fill="rgb(0,0,0)" stroke="none" />
<circle cx="21.088" cy="64.389" r="2" fill="rgb(0,0,0)" stroke="none" />
<circle cx="54.314" cy="23.162" r="2" fill="rgb(0,0,0)" stroke="none" />
<circle cx="58.570" cy="79.705" r="2" fill="rgb(0,0,0)" stroke="none" />
<circle cx="2.624" cy="79.359" r="2" fill="rgb(0,0,0)" stroke="none" />
<circle cx="69.021" cy="34.664" r="2" fill="rgb(0,0,0)" stroke="none" />
<circle cx="16.926" cy="93.892" r="2" fill="rgb(0,0,0)" stroke="none" />
<circle cx="34.313" cy="10.904" r="2" fill="rgb(0,0,0)" stroke="none" />
<circle cx="11.285" cy="83.359" r="2" fill="rgb(0,0,0)" stroke="none" />
<circle cx="59.958" cy="79.484" r="2" fill="rgb(0,0,0)" stroke="none" />
<circle cx="72.054" cy="53.478" r="2" fill="rgb(0,0,0)" stroke="none" />
<circle cx="95.419" cy="38.339" r="2" fill="rgb(0,0,0)" stroke="none" />
<circle cx="54.996" cy="81.623" r="2" fill="rgb(0,0,0)" stroke="none" />
<circle cx="61.378" cy="84.724" r="2" fill="rgb(0,0,0)" stroke="none" />
<circle cx="57.426" cy="69.639" r="2" fill="rgb(0,0,0)" stroke="none" />
<circle cx="6.399" cy="23.878" r="2" fill="rgb(0,0,0)" stroke="none" />
<circle cx="29.781" cy="9.660" r="2" fill="rgb(0,0,0)" stroke="none" />
<circle cx="24.348" cy="11.696" r="2" fill="rgb(0,0,0)" stroke="none" />
<circle cx="28.685" cy="63.026" r="2" fill="rgb(0,0,0)" stroke="none" />
<circle cx="37.024" cy="37.537" r="2" fill="rgb(0,0,0)" stroke="none" />
<circle cx="22.113" cy="27.630" r="2" fill="rgb(0,0,0)" stroke="none" />
<circle cx="91.919" cy="64.211" r="2" fill="rgb(0,0,0)" stroke="none" />
<circle cx="60.477" cy="18.429" r="2" fill="rgb(0,0,0)" stroke="none" />
<circle cx="71.996" cy="17.687" r="2" fill="rgb(0,0,0)" stroke="none" />
<circle cx="38.428" cy="96.994" r="2" fill="rgb(0,0,0)" stroke="none" />
<circle cx="63.440" cy="55.467" r="2" fill="rgb(0,0,0)" stroke="none" />
<circle cx="67.723" cy="82.914" r="2" fill="rgb(0,0,0)" stroke="none" />
<circle cx="76.496" cy="23.989" r="2" fill="rgb(0,0,0)" stroke="none" />
<circle cx="5.082" cy="32.283" r="2" fill="rgb(0,0,0)" stroke="none" />
<circle cx="27.703" cy="22.254" r="2" fill="rgb(0,0,0)" stroke="none" />
<circle cx="92.519" cy="86.131" r="2" fill="rgb(0,0,0)" stroke="none" />
<circle cx="32.209" cy="64.922" r="2" fill="rgb(0,0,0)" stroke="none" />
<circle cx="39.981" cy="89.797" r="2" fill="rgb(0,0,0)" stroke="none" />
</svg>