<svg xmlns="http://www.w3.org/2000/svg" width="100" height="100" viewBox="0 0 100 100">
<circle cx="21.545" cy="62.887" r="2" fill="rgb(0,0,0)" stroke="none" />
<circle cx="27.342" cy="48.899" r="2" fill="rgb(0,0,0)" stroke="none" />
<circle cx="88.912" cy="83.226" r="2" fill="rgb(0,0,0)" stroke="none" />
<circle cx="10.861" cy="42.663" r="2" fill="rgb(0,0,0)" stroke="none" />
<circle cx="28.561" cy="2.340" r="2" fill="rgb(0,0,0)" stroke="none" />
<circle cx="76.027" cy="63.163" r="2" fill="rgb(0,0,0)" stroke="none" />
<circle cx="27.148" cy="73.158" r="2" fill="rgb(0,0,0)" stroke="none" />
<circle cx="54.961" cy="43.058" r="2" fill="rgb(0,0,0)" stroke="none" />
<circle cx="2.928" cy="9.223" r="2" fill="rgb(0,0,0)" stroke="none" />
<circle cx="86.778" cy="88.777" r="2" fill="rgb(0,0,0)" stroke="none" />
<circle cx="54.377" cy="82.121" r="2" fill="rgb(0,0,0)" stroke="none" />
<circle cx="57.921" cy="16.217" r="2" fill="rgb(0,0,0)" stroke="none" />
<circle cx="14.235" cy="31.593" r="2" fill="rgb(0,0,0)" stroke="none" />
<circle cx="88.302" cy="78.428" r="2" fill="rgb(0,0,0)" stroke="none" />
<circle cx="84.627" cy="88.297" r="2" fill="rgb(0,0,0)" stroke="none" />
<circle cx="22.167" cy="25.955" r="2" fill="rgb(0,0,0)" stroke="none" />
<circle cx="11.868" cy="76.891" r="2" fill="rgb(0,0,0)" stroke="none" />
<circle cx="86.877" cy="41.012" r="2" fill="rgb(0,0,0)" stroke="none" />
<circle cx="61.584" cy="16.837" r="2" fill="rgb(0,0,0)" stroke="none" />
<circle cx="91.269" cy="85.002" r="2" fill="rgb(0,0,0)" stroke="none" />
<circle cx="95.716" cy="79.834" r="2" fill="rgb(0,0,0)" stroke="none" />
<circle cx="86.616" cy="4.379" r="2" fill="rgb(0,0,0)" stroke="none" />
<circle cx="72.710" cy="33.890" r="2" fill="rgb(0,0,0)" stroke="none" />
<circle cx="91.358" cy="79.015" r="2" fill="rgb(0,0,0)" stroke="none" />
<circle cx="84.950" cy="79.832" r="2" fill="rgb(0,0,0)" stroke="none" />
<circle cx="27.613" cy="77.588" r="2" fill="rgb(0,0,0)" stroke="none" />
<circle cx="12.377" cy="85.728" r="2" fill="rgb(0,0,0)" stroke="none" />
<circle cx="84.425" cy="23.354" r="2" fill="rgb(0,0,0)" stroke="none" />
<circle cx="80.392" cy="46.189" r="2" fill="rgb(0,0,0)" stroke="none" />
<circle cx="31.298" cy="78.353" r="2" fill="rgb(0,0,0)" stroke="none" />
<circle cx="23.849" cy="4.272" r="2" fill="rgb(0,0,0)" stroke="none" />
<circle cx="20.540" cy="33.513" r="2" fill="rgb(0,0,0)" stroke="none" />
<circle cx="84.978" cy="94.821" r="2" fill="rgb(0,0,0)" stroke="none" />
<circle cx="28.796" cy="63.582" r="2" fill="rgb(0,0,0)" stroke="none" />
<circle cx="40.369" cy="96.190" r="2" fill="rgb(0,0,0)" stroke="none" />
<circle cx="53.477" cy="92.167" r="2" fill="rgb(0,0,0)" stroke="none" />
<circle cx="13.073" cy="95.158" r="2" fill="rgb(0,0,0)" stroke="none" />
<circle cx="19.143" cy="94.403" r="2" fill="rgb(0,0,0)" stroke="none" />
<circle cx="27.485" cy="12.407" r="2" fill="rgb(0,0,0)" stroke="none" />
<circle cx="43.718" cy="71.940" r="2" fill="rgb(0,0,0)" stroke="none" />
<circle cx="32.113" cy="60.196" r="2" fill="rgb(0,0,0)" stroke="none" />
<circle cx="51.097" cy="38.979" r="2" fill="rgb(0,0,0)" stroke="none" />
<circle cx="57.352" cy="26.453" r="2" fill="rgb(0,0,0)" stroke="none" />
<circle cx="70.043" cy="2.162" r="2" fill="rgb(0,0,0)" stroke="none" />
<circle cx="90.855" cy="53.691" r="2" fill="rgb(0,0,0)" stroke="none" />
<circle cx="71.065" cy="73.227" r="2" fill="rgb(0,0,0)" stroke="none" />
<circle cx="66.380" cy="36.965" r="2" fill="rgb(0,0,0)" stroke="none" />
<circle cx="8.717" cy="65.767" r="2" fill="rgb(0,0,0)" stroke="none" />
<circle cx="33.699" cy="32.136" r="2" fill="rgb(0,0,0)" stroke="none" />
<circle cx="83.409" cy="71.096" r="2" fill="rgb(0,0,0)" stroke="none" />
<circle cx="30.831" cy="31.691" r="2" fill="rgb(0,0,0)" stroke="none" />
<circle cx="41.206" cy="40.630" r="2" fill="rgb(0,0,0)" stroke="none" />
<circle cx="30.383" cy="14.220" r="2" fill="rgb(0,0,0)" stroke="none" />
<circle cx="42.363" cy="92.275" r="2" fill="rgb(0,0,0)" stroke="none" />
<circle cx="67.023" cy="88.669" r="2" fill="rgb(0,0,0)" stroke="none" />
<circle cx="61.089" cy="30.891" r="2" fill="rgb(0,0,0)" stroke="none" />
<circle cx="54.602" cy="2.039" r="2" fill="rgb(0,0,0)" stroke="none" />
<circle cx="29.544" cy="43.269" r="2" fill="rgb(0,0,0)" stroke="none" />
<circle cx="57.679" cy="64.852" r="2" fill="rgb(0,0,0)" stroke="none" />
<circle cx="46.639" cy="44.447" r="2" fill="rgb(0,0,0)" stroke="none" />
</svg>