<svg xmlns="http://www.w3.org/2000/svg" width="100" height="100" viewBox="0 0 100 100">
<circle cx="34.178" cy="80.569" r="2" fill="rgb(0,0,0)" stroke="none" />
<circle cx="74.109" cy="66.588" r="2" fill="rgb(0,0,0)" stroke="none" />
<circle cx="23.566" cy="21.116" r="2" fill="rgb(0,0,0)" stroke="none" />
<circle cx="4.345" cy="25.505" r="2" fill="rgb(0,0,0)" stroke="none" />
<circle cx="47.613" cy="83.575" r="2" fill="rgb(0,0,0)" stroke="none" />
<circle cx="8.992" cy="41.786" r="2" fill="rgb(0,0,0)" stroke="none" />
<circle cx="62.457" cy="20.666" r="2" fill="rgb(0,0,0)" stroke="none" />
<circle cx="68.850" cy="49.460" r="2" fill="rgb(0,0,0)" stroke="none" />
<circle cx="25.423" cy="64.982" r="2" fill="rgb(0,0,0)" stroke="none" />
<circle cx="2.532" cy="74.093" r="2" fill="rgb(0,0,0)" stroke="none" />
<circle cx="75.924" cy="12.232" r="2" fill="rgb(0,0,0)" stroke="none" />
<circle cx="42.814" cy="18.885" r="2" fill="rgb(0,0,0)" stroke="none" />
<circle cx="93.965" cy="51.724" r="2" fill="rgb(0,0,0)" stroke="none" />
<circle cx="6.821" cy="25.923" r="2" fill="rgb(0,0,0)" stroke="none" />
<circle cx="83.440" cy="45.820" r="2" fill="rgb(0,0,0)" stroke="none" />
<circle cx="78.936" cy="66.087" r="2" fill="rgb(0,0,0)" stroke="none" />
<circle cx="96.838" cy="59.163" r="2" fill="rgb(0,0,0)" stroke="none" />
<circle cx="93.204" cy="87.577" r="2" fill="rgb(0,0,0)" stroke="none" />
<circle cx="60.815" cy="71.050" r="2" fill="rgb(0,0,0)" stroke="none" />
<circle cx="50.459" cy="81.735" r="2" fill="rgb(0,0,0)" stroke="none" />
<circle cx="54.596" cy="88.132" r="2" fill="rgb(0,0,0)" stroke="none" />
<circle cx="73.391" cy="47.569" r="2" fill="rgb(0,0,0)" stroke="none" />
<circle cx="26.882" cy="25.735" r="2" fill="rgb(0,0,0)" stroke="none" />
<circle cx="63.215" cy="75.518" r="2" fill="rgb(0,0,0)" stroke="none" />
<circle cx="52.045" cy="62.168" r="2" fill="rgb(0,0,0)" stroke="none" />
<circle cx="28.361" cy="9.438" r="2" fill="rgb(0,0,0)" stroke="none" />
<circle cx="29.430" cy="28.085" r="2" fill="rgb(0,0,0)" stroke="none" />
<circle cx="32.692" cy="53.855" r="2" fill="rgb(0,0,0)" stroke="none" />
<circle cx="15.284" cy="24.201" r="2" fill="rgb(0,0,0)" stroke="none" />
<circle cx="68.619" cy="69.816" r="2" fill="rgb(0,0,0)" stroke="none" />
<circle cx="8.166" cy="41.130" r="2" fill="rgb(0,0,0)" stroke="none" />
<circle cx="54.091" cy="41.914" r="2" fill="rgb(0,0,0)" stroke="none" />
<circle cx="21.856" cy="42.334" r="2" fill="rgb(0,0,0)" stroke="none" />
<circle cx="88.864" cy="58.072" r="2" fill="rgb(0,0,0)" stroke="none" />
<circle cx="68.770" cy="84.246" r="2" fill="rgb(0,0,0)" stroke="none" />
<circle cx="75.497" cy="38.517" r="2" fill="rgb(0,0,0)" stroke="none" />
<circle cx="2.566" cy="35.769" r="2" fill="rgb(0,0,0)" stroke="none" />
</svg>