<svg xmlns="http://www.w3.org/2000/svg" width="100" height="100" viewBox="0 0 100 100">
<circle cx="53.780" cy="76.748" r="2" fill="rgb(0,0,0)" stroke="none" />
<circle cx="52.914" cy="2.055" r="2" fill="rgb(0,0,0)" stroke="none" />
<circle cx="33.119" cy="3.870" r="2" fill="rgb(0,0,0)" stroke="none" />
<circle cx="91.193" cy="86.357" r="2" fill="rgb(0,0,0)" stroke="none" />
<circle cx="81.840" cy="31.521" r="2" fill="rgb(0,0,0)" stroke="none" />
<circle cx="7.561" cy="86.289" r="2" fill="rgb(0,0,0)" stroke="none" />
<circle cx="92.907" cy="10.223" r="2" fill="rgb(0,0,0)" stroke="none" />
<circle cx="48.655" cy="8.644" r="2" fill="rgb(0,0,0)" stroke="none" />
<circle cx="75.018" cy="75.520" r="2" fill="rgb(0,0,0)" stroke="none" />
<circle cx="14.326" cy="47.627" r="2" fill="rgb(0,0,0)" stroke="none" />
<circle cx="54.781" cy="27.445" r="2" fill="rgb(0,0,0)" stroke="none" />
<circle cx="85.754" cy="42.621" r="2" fill="rgb(0,0,0)" stroke="none" />
<circle cx="22.333" cy="53.772" r="2" fill="rgb(0,0,0)" stroke="none" />
<circle cx="72.073" cy="21.311" r="2" fill="rgb(0,0,0)" stroke="none" />
<circle cx="31.925" cy="97.534" r="2" fill="rgb(0,0,0)" stroke="none" />
<circle cx="64.388" cy="44.058" r="2" fill="rgb(0,0,0)" stroke="none" />
<circle cx="51.687" cy="13.616" r="2" fill="rgb(0,0,0)" stroke="none" />
<circle cx="23.571" cy="34.456" r="2" fill="rgb(0,0,0)" stroke="none" />
<circle cx="58.478" cy="24.091" r="2" fill="rgb(0,0,0)" stroke="none" />
<circle cx="23.141" cy="8.815" r="2" fill="rgb(0,0,0)" stroke="none" />
<circle cx="62.586" cy="23.978" r="2" fill="rgb(0,0,0)" stroke="none" />
<circle cx="88.920" cy="84.525" r="2" fill="rgb(0,0,0)" stroke="none" />
<circle cx="8.802" cy="24.848" r="2" fill="rgb(0,0,0)" stroke="none" />
<circle cx="66.222" cy="22.567" r="2" fill="rgb(0,0,0)" stroke="none" />
<circle cx="14.702" cy="91.809" r="2" fill="rgb(0,0,0)" stroke="none" />
<circle cx="56.820" cy="47.376" r="2" fill="rgb(0,0,0)" stroke="none" />
<circle cx="77.323" cy="79.520" r="2" fill="rgb(0,0,0)" stroke="none" />
<circle cx="20.279" cy="11.305" r="2" fill="rgb(0,0,0)" stroke="none" />
<circle cx="43.381" cy="42.664" r="2" fill="rgb(0,0,0)" stroke="none" />
<circle cx="46.834" cy="71.991" r="2" fill="rgb(0,0,0)" stroke="none" />
<circle cx="66.643" cy="96.480" r="2" fill="rgb(0,0,0)" stroke="none" />
<circle cx="11.448" cy="40.652" r="2" fill="rgb(0,0,0)" stroke="none" />
<circle cx="34.573" cy="84.721" r="2" fill="rgb(0,0,0)" stroke="none" />
<circle cx="25.871" cy="20.260" r="2" fill="rgb(0,0,0)" stroke="none" />
<circle cx="45.067" cy="42.501" r="2" fill="rgb(0,0,0)" stroke="none" />
<circle cx="28.740" cy="25.981" r="2" fill="rgb(0,0,0)" stroke="none" />
<circle cx="90.633" cy="44.541" r="2" fill="rgb(0,0,0)" stroke="none" />
<circle cx="84.690" cy="54.831" r="2" fill="rgb(0,0,0)" stroke="none" />
<circle cx="6.856" cy="97.931" r="2" fill="rgb(0,0,0)" stroke="none" />
<circle cx="82.259" cy="95.024" r="2" fill="rgb(0,0,0)" stroke="none" />
<circle cx="90.931" cy="83.475" r="2" fill="rgb(0,0,0)" stroke="none" />
<circle cx="17.966" cy="48.622" r="2" fill="rgb(0,0,0)" stroke="none" />
<circle cx="22.520" cy="40.500" r="2" fill="rgb(0,0,0)" stroke="none" />
<circle cx="7.629" cy="38.381" r="2" fill="rgb(0,0,0)" stroke="none" />
<circle cx="96.590" cy="27.459" r="2" fill="rgb(0,0,0)" stroke="none" />
<circle cx="77.271" cy="45.681" r="2" fill="rgb(0,0,0)" stroke="none" />
<circle cx="42.609" cy="93.902" r="2" fill="rgb(0,0,0)" stroke="none" />
<circle cx="97.561" cy="55.354" r="2" fill="rgb(0,0,0)" stroke="none" />
<circle cx="70.967" cy="16.860" r="2" fill="rgb(0,0,0)" stroke="none" />
<circle cx="30.484" cy="94.996" r="2" fill="rgb(0,0,0)" stroke="none" />
<circle cx="57.601" cy="54.051" r="2" fill="rgb(0,0,0)" stroke="none" />
<circle cx="73.806" cy="7.488" r="2" fill="rgb(0,0,0)" stroke="none" />
<circle cx="58.081" cy="50.274" r="2" fill="rgb(0,0,0)" stroke="none" />
<circle cx="83.861" cy="17.114" r="2" fill="rgb(0,0,0)" stroke="none" />
<circle cx="94.235" cy="9.691" r="2" fill="rgb(0,0,0)" stroke="none" />
<circle cx="19.839" cy="59.123" r="2" fill="rgb(0,0,0)" stroke="none" />
<circle cx="66.820" cy="24.580" r="2" fill="rgb(0,0,0)" stroke="none" />
<circle cx="13.509" cy="87.468" r="2" fill="rgb(0,0,0)" stroke="none" />
<circle cx="25.637" cy="59.074" r="2" fill="rgb(0,0,0)" stroke="none" />
<circle cx="61.461" cy="42.246" r="2" fill="rgb(0,0,0)" stroke="none" />
<circle cx="58.033" cy="52.187" r="2" fill="rgb(0,0,0)" stroke="none" />
<circle cx="91.732" cy="21.609" r="2" fill="rgb(0,0,0)" stroke="none" />
<circle cx="70.754" cy="24.914" r="2" fill="rgb(0,0,0)" stroke="none" />
<circle cx="39.995" cy="66.482" r="2" fill="rgb(0,0,0)" stroke="none" />
<circle cx="30.800" cy="32.353" r="2" fill="rgb(0,0,0)" stroke="none" />
<circle cx="74.179" cy="8.964" r="2" fill="rgb(0,0,0)" stroke="none" />
<circle cx="45.995" cy="97.852" r="2" fill="rgb(0,0,0)" stroke="none" />
<circle cx="97.625" cy="9.033" r="2" fill="rgb(0,0,0)" stroke="none" />
<circle cx="22.463" cy="27.459" r="2" fill="rgb(0,0,0)" stroke="none" />
<circle cx="91.593" cy="86.563" r="2" fill="rgb(0,0,0)" stroke="none" />
<circle cx="86.410" cy="37.475" r="2" fill="rgb(0,0,0)" stroke="none" />
<circle cx="17.144" cy="82.040" r="2" fill="rgb(0,0,0)" stroke="none" />
<circle cx="69.540" cy="60.721" r="2" fill="rgb(0,0,0)" stroke="none" />
<circle cx="96.774" cy="64.782" r="2" fill="rgb(0,0,0)" stroke="none" />
<circle cx="2.751" cy="80.442" r="2" fill="rgb(0,0,0)" stroke="none" />
<circle cx="30.740" cy="65.685" r="2" fill="rgb(0,0,0)" stroke="none" />
<circle cx="92.137" cy="14.892" r="2" fill="rgb(0,0,0)" stroke="none" />
</svg>