<svg xmlns="http://www.w3.org/2000/svg" width="100" height="100" viewBox="0 0 100 100">
<circle cx="29.961" cy="24.222" r="2" fill="rgb(0,0,0)" stroke="none" />
<circle cx="69.868" cy="69.487" r="2" fill="rgb(0,0,0)" stroke="none" />
<circle cx="45.587" cy="67.989" r="2" fill="rgb(0,0,0)" stroke="none" />
<circle cx="90.695" cy="77.631" r="2" fill="rgb(0,0,0)" stroke="none" />
<circle cx="62.006" cy="65.474" r="2" fill="rgb(0,0,0)" stroke="none" />
<circle cx="91.632" cy="42.813" r="2" fill="rgb(0,0,0)" stroke="none" />
<circle cx="54.278" cy="64.173" r="2" fill="rgb(0,0,0)" stroke="none" />
<circle cx="89.207" cy="81.357" r="2" fill="rgb(0,0,0)" stroke="none" />
<circle cx="8.855" cy="17.929" r="2" fill="rgb(0,0,0)" stroke="none" />
<circle cx="31.531" cy="73.900" r="2" fill="rgb(0,0,0)" stroke="none" />
<circle cx="56.644" cy="29.707" r="2" fill="rgb(0,0,0)" stroke="none" />
<circle cx="13.938" cy="68.113" r="2" fill="rgb(0,0,0)" stroke="none" />
<circle cx="69.174" cy="92.497" r="2" fill="rgb(0,0,0)" stroke="none" />
<circle cx="50.045" cy="49.404" r="2" fill="rgb(0,0,0)" stroke="none" />
<circle cx="9.722" cy="5.827" r="2" fill="rgb(0,0,0)" stroke="none" />
<circle cx="43.475" cy="32.943" r="2" fill="rgb(0,0,0)" stroke="none" />
<circle cx="26.035" cy="10.767" r="2" fill="rgb(0,0,0)" stroke="none" />
<circle cx="94.343" cy="82.252" r="2" fill="rgb(0,0,0)" stroke="none" />
<circle cx="57.219" cy="93.275" r="2" fill="rgb(0,0,0)" stroke="none" />
<circle cx="97.959" cy="66.539" r="2" fill="rgb(0,0,0)" stroke="none" />
<circle cx="27.873" cy="5.862" r="2" fill="rgb(0,0,0)" stroke="none" />
<circle cx="74.602" cy="47.168" r="2" fill="rgb(0,0,0)" stroke="none" />
<circle cx="64.545" cy="89.943" r="2" fill="rgb(0,0,0)" stroke="none" />
<circle cx="19.423" cy="58.192" r="2" fill="rgb(0,0,0)" stroke="none" />
<circle cx="62.939" cy="49.206" r="2" fill="rgb(0,0,0)" stroke="none" />
<circle cx="10.759" cy="35.404" r="2" fill="rgb(0,0,0)" stroke="none" />
<circle cx="33.998" cy="66.333" r="2" fill="rgb(0,0,0)" stroke="none" />
<circle cx="84.342" cy="33.661" r="2" fill="rgb(0,0,0)" stroke="none" />
<circle cx="68.593" cy="29.669" r="2" fill="rgb(0,0,0)" stroke="none" />
<circle cx="92.739" cy="80.102" r="2" fill="rgb(0,0,0)" stroke="none" />
</svg>