<svg xmlns="http://www.w3.org/2000/svg" width="100" height="100" viewBox="0 0 100 100">
<circle cx="45.663" cy="32.194" r="2" fill="rgb(0,0,0)" stroke="none" />
<circle cx="33.034" cy="95.138" r="2" fill="rgb(0,0,0)" stroke="none" />
<circle cx="40.801" cy="51.401" r="2" fill="rgb(0,0,0)" stroke="none" />
<circle cx="96.859" cy="65.135" r="2" fill="rgb(0,0,0)" stroke="none" />
<circle cx="54.089" cy="41.672" r="2" fill="rgb(0,0,0)" stroke="none" />
<circle cx="20.008" cy="36.731" r="2" fill="rgb(0,0,0)" stroke="none" />
<circle cx="74.619" cy="62.039" r="2" fill="rgb(0,0,0)" stroke="none" />
<circle cx="74.959" cy="21.542" r="2" fill="rgb(0,0,0)" stroke="none" />
<circle cx="54.725" cy="91.057" r="2" fill="rgb(0,0,0)" stroke="none" />
<circle cx="44.059" cy="69.032" r="2" fill="rgb(0,0,0)" stroke="none" />
<circle cx="13.657" cy="95.422" r="2" fill="rgb(0,0,0)" stroke="none" />
<circle cx="60.452" cy="24.973" r="2" fill="rgb(0,0,0)" stroke="none" />
<circle cx="17.204" cy="54.881" r="2" fill="rgb(0,0,0)" stroke="none" />
<circle cx="55.016" cy="10.948" r="2" fill="rgb(0,0,0)" stroke="none" />
<circle cx="97.257" cy="89.641" r="2" fill="rgb(0,0,0)" stroke="none" />
<circle cx="46.299" cy="13.277" r="2" fill="rgb(0,0,0)" stroke="none" />
<circle cx="81.886" cy="49.844" r="2" fill="rgb(0,0,0)" stroke="none" />
<circle cx="70.794" cy="50.852" r="2" fill="rgb(0,0,0)" stroke="none" />
<circle cx="28.249" cy="82.133" r="2" fill="rgb(0,0,0)" stroke="none" />
<circle cx="96.103" cy="25.398" r="2" fill="rgb(0,0,0)" stroke="none" />
<circle cx="54.921" cy="38.824" r="2" fill="rgb(0,0,0)" stroke="none" />
<circle cx="90.499" cy="50.791" r="2" fill="rgb(0,0,0)" stroke="none" />
<circle cx="86.415" cy="84.947" r="2" fill="rgb(0,0,0)" stroke="none" />
</svg>