<svg xmlns="http://www.w3.org/2000/svg" width="100" height="100" viewBox="0 0 100 100">
<circle cx="83.931" cy="93.529" r="2" fill="rgb(0,0,0)" stroke="none" />
<circle cx="42.226" cy="73.762" r="2" fill="rgb(0,0,0)" stroke="none" />
<circle cx="54.429" cy="59.912" r="2" fill="rgb(0,0,0)" stroke="none" />
<circle cx="23.172" cy="23.064" r="2" fill="rgb(0,0,0)" stroke="none" />
<circle cx="43.840" cy="4.786" r="2" fill="rgb(0,0,0)" stroke="none" />
<circle cx="34.268" cy="67.198" r="2" fill="rgb(0,0,0)" stroke="none" />
<circle cx="40.814" cy="17.844" r="2" fill="rgb(0,0,0)" stroke="none" />
<circle cx="46.869" cy="14.252" r="2" fill="rgb(0,0,0)" stroke="none" />
<circle cx="61.737" cy="4.589" r="2" fill="rgb(0,0,0)" stroke="none" />
<circle cx="39.826" cy="56.182" r="2" fill="rgb(0,0,0)" stroke="none" />
<circle cx="4.602" cy="63.704" r="2" fill="rgb(0,0,0)" stroke="none" />
<circle cx="15.027" cy="46.323" r="2" fill="rgb(0,0,0)" stroke="none" />
<circle cx="6.827" cy="38.394" r="2" fill="rgb(0,0,0)" stroke="none" />
<circle cx="22.319" cy="33.377" r="2" fill="rgb(0,0,0)" stroke="none" />
<circle cx="75.078" cy="38.396" r="2" fill="rgb(0,0,0)" stroke="none" />
<circle cx="74.193" cy="81.865" r="2" fill="rgb(0,0,0)" stroke="none" />
<circle cx="26.218" cy="9.863" r="2" fill="rgb(0,0,0)" stroke="none" />
<circle cx="3.861" cy="53.784" r="2" fill="rgb(0,0,0)" stroke="none" />
<circle cx="97.991" cy="35.596" r="2" fill="rgb(0,0,0)" stroke="none" />
<circle cx="64.414" cy="76.998" r="2" fill="rgb(0,0,0)" stroke="none" />
<circle cx="64.568" cy="74.406" r="2" fill="rgb(0,0,0)" stroke="none" />
<circle cx="93.163" cy="21.139" r="2" fill="rgb(0,0,0)" stroke="none" />
<circle cx="3.956" cy="16.629" r="2" fill="rgb(0,0,0)" stroke="none" />
<circle cx="14.117" cy="66.268" r="2" fill="rgb(0,0,0)" stroke="none" />
<circle cx="56.141" cy="22.925" r="2" fill="rgb(0,0,0)" stroke="none" />
<circle cx="69.149" cy="75.622" r="2" fill="rgb(0,0,0)" stroke="none" />
<circle cx="18.108" cy="60.296" r="2" fill="rgb(0,0,0)" stroke="none" />
<circle cx="73.801" cy="12.995" r="2" fill="rgb(0,0,0)" stroke="none" />
<circle cx="80.653" cy="94.613" r="2" fill="rgb(0,0,0)" stroke="none" />
<circle cx="12.377" cy="4.465" r="2" fill="rgb(0,0,0)" stroke="none" />
<circle cx="31.948" cy="67.025" r="2" fill="rgb(0,0,0)" stroke="none" />
<circle cx="93.985" cy="40.079" r="2" fill="rgb(0,0,0)" stroke="none" />
<circle cx="70.641" cy="9.296" r="2" fill="rgb(0,0,0)" stroke="none" />
<circle cx="68.299" cy="62.215" r="2" fill="rgb(0,0,0)" stroke="none" />
<circle cx="11.783" cy="76.158" r="2" fill="rgb(0,0,0)" stroke="none" />
<circle cx="83.628" cy="59.640" r="2" fill="rgb(0,0,0)" stroke="none" />
<circle cx="13.621" cy="96.449" r="2" fill="rgb(0,0,0)" stroke="none" />
<circle cx="77.133" cy="35.332" r="2" fill="rgb(0,0,0)" stroke="none" />
<circle cx="43.124" cy="37.575" r="2" fill="rgb(0,0,0)" stroke="none" />
<circle cx="50.572" cy="34.758" r="2" fill="rgb(0,0,0)" stroke="none" />
<circle cx="83.559" cy="80.944" r="2" fill="rgb(0,0,0)" stroke="none" />
<circle cx="12.132" cy="94.236" r="2" fill="rgb(0,0,0)" stroke="none" />
<circle cx="63.016" cy="81.556" r="2" fill="rgb(0,0,0)" stroke="none" />
<circle cx="69.902" cy="43.807" r="2" fill="rgb(0,0,0)" stroke="none" />
<circle cx="72.444" cy="94.685" r="2" fill="rgb(0,0,0)" stroke="none" />
<circle cx="27.928" cy="79.587" r="2" fill="rgb(0,0,0)" stroke="none" />
<circle cx="53.665" cy="48.416" r="2" fill="rgb(0,0,0)" stroke="none" />
<circle cx="43.815" cy="72.179" r="2" fill="rgb(0,0,0)" stroke="none" />
<circle cx="27.766" cy="83.764" r="2" fill="rgb(0,0,0)" stroke="none" />
<circle cx="81.750" cy="10.320" r="2" fill="rgb(0,0,0)" stroke="none" />
<circle cx="86.637" cy="25.411" r="2" fill="rgb(0,0,0)" stroke="none" />
<circle cx="46.612" cy="60.592" r="2" fill="rgb(0,0,0)" stroke="none" />
<circle cx="38.383" cy="4.755" r="2" fill="rgb(0,0,0)" stroke="none" />
<circle cx="83.691" cy="19.457" r="2" fill="rgb(0,0,0)" stroke="none" />
<circle cx="22.364" cy="78.592" r="2" fill="rgb(0,0,0)" stroke="none" />
<circle cx="34.673" cy="86.511" r="2" fill="rgb(0,0,0)" stroke="none" />
<circle cx="69.314" cy="28.522" r="2" fill="rgb(0,0,0)" stroke="none" />
<circle cx="2.975" cy="93.014" r="2" fill="rgb(0,0,0)" stroke="none" />
<circle cx="10.219" cy="71.127" r="2" fill="rgb(0,0,0)" stroke="none" />
<circle cx="48.903" cy="74.784" r="2" fill="rgb(0,0,0)" stroke="none" />
<circle cx="68.298" cy="64.007" r="2" fill="rgb(0,0,0)" stroke="none" />
<circle cx="49.119" cy="78.122" r="2" fill="rgb(0,0,0)" stroke="none" />
<circle cx="10.933" cy="23.273" r="2" fill="rgb(0,0,0)" stroke="none" />
<circle cx="68.412" cy="31.396" r="2" fill="rgb(0,0,0)" stroke="none" />
<circle cx="57.829" cy="47.433" r="2" fill="rgb(0,0,0)" stroke="none" />
<circle cx="52.969" cy="42.848" r="2" fill="rgb(0,0,0)" stroke="none" />
<circle cx="73.610" cy="33.756" r="2" fill="rgb(0,0,0)" stroke="none" />
<circle cx="69.474" cy="28.008" r="2" fill="rgb(0,0,0)" stroke="none" />
<circle cx="26.135" cy="13.583" r="2" fill="rgb(0,0,0)" stroke="none" />
<circle cx="20.488" cy="13.477" r="2" fill="rgb(0,0,0)" stroke="none" />
<circle cx="53.443" cy="75.170" r="2" fill="rgb(0,0,0)" stroke="none" />
<circle cx="19.774" cy="22.773" r="2" fill="rgb(0,0,0)" stroke="none" />
<circle cx="48.483" cy="71.560" r="2" fill="rgb(0,0,0)" stroke="none" />
<circle cx="95.754" cy="52.365" r="2" fill="rgb(0,0,0)" stroke="none" />
</svg>